# Blender v2.90.1 OBJ File: 'asteroids.blend'
# www.blender.org
o Mesh
v -0.386261 -0.245130 -0.286521
v -0.040624 -0.161033 0.036792
v 0.257314 -0.135580 0.200045
v 0.670587 -0.213569 0.205044
v 0.257266 -0.293865 0.200023
v -0.040946 -0.298766 0.036647
v 0.166114 -0.126902 0.234601
v -0.102404 -0.217576 0.234601
v 0.127039 -0.216574 0.333291
v 0.166114 -0.306247 0.234601
v -0.031903 0.190172 0.049664
v 0.710664 0.006355 0.197028
v 1.073864 0.001170 0.133155
v 0.658063 -0.214070 0.234601
v 0.264303 -0.290216 0.200535
v -0.026257 -0.479081 0.223579
v -0.043290 -0.290216 0.024195
v -0.026257 -0.290216 0.223579
v -0.211614 -0.368868 0.083309
v -0.040284 -0.454032 0.237607
v -0.345372 -0.536191 0.265661
v -0.355892 -0.481085 0.169475
v -0.402983 -0.598311 0.308243
v -0.513196 -0.556229 0.191518
v -0.945028 -0.789680 0.164466
v -0.515200 -0.483088 0.206046
v -0.070843 -0.268675 0.066777
v 0.014321 -0.308752 0.094330
v -0.300285 -0.270178 0.146431
v -0.153502 -0.198540 0.109109
v -0.456086 -0.368868 0.206547
v -0.386261 0.268861 -0.286521
v 0.670587 0.237301 0.205044
v 0.257314 0.159312 0.200045
v -0.040624 0.184765 0.036792
v -0.040946 0.322498 0.036647
v 0.257266 0.317597 0.200023
v 0.166114 0.150633 0.234601
v 0.127039 0.240306 0.333291
v -0.102404 0.241308 0.234601
v 0.166114 0.329979 0.234601
v 0.658063 0.237802 0.234601
v 0.264303 0.313948 0.200535
v -0.043290 0.313948 0.024195
v -0.026257 0.502813 0.223579
v -0.026257 0.313948 0.223579
v -0.211614 0.392600 0.083309
v -0.355892 0.504816 0.169475
v -0.345372 0.559923 0.265661
v -0.040284 0.477764 0.237607
v -0.513196 0.579961 0.191518
v -0.402983 0.622042 0.308243
v -0.945028 0.813411 0.164466
v -0.515200 0.506820 0.206046
v 0.014321 0.332484 0.094330
v -0.070843 0.292407 0.066777
v -0.300285 0.293910 0.146431
v -0.153502 0.222272 0.109109
v -0.456086 0.392600 0.206547
v 0.126847 0.013275 -0.014901
v 0.122816 0.009133 -0.010352
v 0.126857 0.004986 -0.014903
v 0.127195 0.000881 -0.017570
v 0.125759 0.009003 -0.026490
v 0.127214 0.017135 -0.017564
v 0.091789 -0.030111 -0.019252
v 0.091789 0.009138 0.001407
v 0.091789 0.009000 -0.046235
v 0.091789 0.048249 -0.019252
v 0.091789 0.009000 -0.059157
v 0.075017 0.048249 -0.061319
v 0.075017 -0.030111 -0.061319
v 0.076758 -0.003303 -0.080190
v 0.076758 0.023504 -0.080190
v 0.055221 0.048249 -0.061319
v 0.055221 0.048249 -0.019252
v 0.055221 0.009138 0.001407
v 0.055221 -0.030111 -0.019252
v 0.055221 -0.030111 -0.061319
v 0.055221 -0.019656 -0.083697
v 0.055221 0.039856 -0.083697
v 0.075018 -0.041031 -0.080956
v 0.069244 -0.027636 -0.105623
v 0.055221 -0.041031 -0.080956
v 0.055221 -0.024743 -0.093800
v 0.069244 0.048799 -0.104798
v 0.075018 0.059753 -0.080528
v 0.055221 0.045906 -0.092975
v 0.055221 0.059753 -0.080528
v 0.037350 -0.012236 -0.067598
v 0.037350 0.031675 -0.067598
v 0.037350 -0.017518 -0.058064
v 0.037350 -0.017518 -0.026854
v 0.037350 0.009128 -0.012829
v 0.037350 0.035656 -0.026842
v 0.037350 0.035656 -0.058645
v 0.050769 -0.022142 0.058657
v 0.041694 -0.032933 0.006967
v 0.080297 -0.032933 0.006967
v 0.071221 -0.022142 0.058657
v 0.041694 0.050522 0.006967
v 0.050769 0.039731 0.058657
v 0.071221 0.039731 0.058657
v 0.080297 0.050522 0.006967
v 0.070693 0.040344 -0.001006
v 0.051297 0.040344 -0.001006
v 0.051297 -0.022756 -0.001006
v 0.070693 -0.022756 -0.001006
v 0.089663 0.008794 0.000919
v 0.074658 0.008794 0.071854
v 0.050769 0.008794 0.071854
v 0.035764 0.008794 0.000919
v 0.051297 0.008794 -0.007055
v 0.070693 0.008794 -0.007055
v 0.050856 -0.062093 0.035123
v -0.034282 -0.030582 -0.098924
v -0.034282 0.043553 -0.098924
v 0.050856 0.078509 0.035123
v 0.244856 -0.021352 0.065065
v 0.244856 0.034298 0.065065
v 0.706787 0.005396 0.196259
v -0.031903 -0.177462 0.049664
v -0.256862 0.009202 0.099289
v -0.032200 0.190047 0.049578
v -0.456587 0.011540 -0.073493
v -0.022666 0.055420 -0.165233
v -0.022666 -0.042710 -0.165233
v 0.083579 0.097432 -0.011302
v 0.083579 -0.080573 -0.011302
v 0.279613 0.045746 0.012768
v 0.279613 -0.033035 0.012768
v -0.022666 0.055420 -0.165233
v 0.279613 0.045746 0.012768
v 0.279613 -0.033035 0.012768
v -0.022666 -0.042710 -0.165233
v 0.083579 0.097432 -0.011302
v 0.083579 -0.080573 -0.011302
vn 0.1614 0.9020 -0.4004
vn 0.1648 0.8935 -0.4177
vn 0.1605 0.9041 -0.3961
vn 0.1814 -0.9286 -0.3236
vn 0.1852 -0.9205 -0.3440
vn 0.1861 -0.9185 -0.3488
vn -0.5865 0.0005 0.8099
vn -0.2538 0.0000 0.9673
vn -0.2539 -0.0000 0.9672
vn -0.5864 0.0006 0.8100
vn -0.6832 0.0008 0.7302
vn -0.0675 0.7516 0.6562
vn -0.2579 0.7637 0.5918
vn -0.0611 -0.7507 0.6579
vn -0.2522 -0.7638 0.5941
vn -0.0121 -0.0001 0.9999
vn -0.0567 0.7060 0.7060
vn -0.0046 0.6074 0.7943
vn 0.1046 0.8440 0.5260
vn 0.1325 -0.7069 0.6948
vn 0.1256 0.7090 0.6939
vn -0.0000 -0.0000 -1.0000
vn 0.3750 -0.6568 -0.6542
vn -0.9964 0.0000 0.0851
vn 0.0791 0.0000 0.9969
vn 0.0000 1.0000 -0.0000
vn 0.2716 -0.6759 -0.6851
vn 0.3223 -0.7830 -0.5319
vn 0.3383 -0.6324 -0.6969
vn 0.3284 -0.7777 -0.5360
vn 0.4303 -0.7135 -0.5530
vn 0.4391 -0.6826 -0.5841
vn 0.4022 -0.6719 -0.6220
vn -0.1228 0.1814 -0.9757
vn -0.0432 0.1935 -0.9801
vn -0.1228 0.1758 -0.9767
vn 0.3038 -0.6174 -0.7256
vn -0.3448 0.2545 -0.9035
vn -0.4520 0.0920 -0.8872
vn -0.4331 0.0832 -0.8975
vn -0.3196 0.0115 -0.9475
vn -0.2787 -0.0101 -0.9603
vn -0.3632 0.3948 0.8439
vn -0.0295 0.5670 0.8232
vn -0.1055 0.3945 0.9128
vn 0.1825 0.4691 0.8641
vn 0.2069 0.4616 0.8626
vn 0.1608 0.3251 0.9319
vn 0.3725 0.5421 0.7533
vn 0.2780 0.4918 0.8251
vn 0.6414 0.5521 0.5327
vn 0.4900 0.7943 -0.3592
vn 0.1648 -0.8935 -0.4177
vn 0.1614 -0.9020 -0.4004
vn 0.1605 -0.9041 -0.3961
vn 0.1814 0.9286 -0.3236
vn 0.1852 0.9205 -0.3440
vn 0.1766 0.9377 -0.2991
vn -0.5865 -0.0005 0.8099
vn -0.5864 -0.0006 0.8100
vn -0.6832 -0.0008 0.7302
vn -0.0675 -0.7516 0.6562
vn -0.2579 -0.7637 0.5918
vn -0.0611 0.7507 0.6579
vn -0.2522 0.7638 0.5941
vn -0.0121 0.0001 0.9999
vn 0.1325 0.7069 0.6948
vn 0.1256 -0.7090 0.6939
vn 0.3750 0.6568 -0.6542
vn -0.0000 -1.0000 -0.0000
vn 0.3223 0.7830 -0.5319
vn 0.2716 0.6759 -0.6851
vn 0.3383 0.6324 -0.6969
vn 0.3284 0.7777 -0.5360
vn 0.4303 0.7135 -0.5530
vn 0.4391 0.6826 -0.5841
vn 0.4022 0.6719 -0.6220
vn -0.1228 -0.1814 -0.9757
vn -0.1228 -0.1758 -0.9767
vn -0.0432 -0.1935 -0.9801
vn 0.3038 0.6174 -0.7256
vn -0.4520 -0.0920 -0.8872
vn -0.3448 -0.2545 -0.9035
vn -0.4331 -0.0832 -0.8975
vn -0.3196 -0.0115 -0.9475
vn -0.2787 0.0101 -0.9603
vn -0.3632 -0.3948 0.8439
vn -0.1055 -0.3945 0.9128
vn -0.0295 -0.5670 0.8232
vn 0.1825 -0.4691 0.8641
vn 0.1608 -0.3251 0.9319
vn 0.2069 -0.4616 0.8626
vn 0.2780 -0.4918 0.8251
vn 0.3725 -0.5421 0.7533
vn 0.6414 -0.5521 0.5327
vn 0.4900 -0.7943 -0.3592
vn 0.5977 0.2543 0.7603
vn 0.5410 0.0018 0.8410
vn 0.6057 -0.2508 0.7551
vn 0.9871 -0.0011 -0.1599
vn 0.0994 -0.3134 0.9444
vn 0.1634 -0.4541 0.8758
vn 0.7069 -0.4016 -0.5822
vn 0.4083 -0.5530 -0.7262
vn 0.5563 -0.2578 -0.7900
vn 0.0931 0.3147 0.9446
vn 0.1540 0.4561 0.8765
vn 0.4508 0.5406 -0.7103
vn 0.4730 0.4992 -0.7260
vn 0.3304 0.2392 -0.9130
vn 0.1238 0.0006 -0.9923
vn 0.3163 0.2649 -0.9109
vn 0.1242 0.0009 -0.9923
vn -0.0472 -0.0003 0.9989
vn 0.1003 -0.3143 0.9440
vn -0.0469 -0.0005 0.9989
vn 0.9924 -0.0982 -0.0741
vn 0.9892 0.1352 -0.0566
vn 0.9957 -0.0179 -0.0911
vn 0.9352 -0.2551 -0.2457
vn 0.8912 -0.3343 -0.3066
vn 0.6827 -0.3568 -0.6377
vn 0.9070 -0.1716 -0.3845
vn 0.9761 -0.0521 -0.2110
vn 0.9364 0.1386 -0.3224
vn 0.0000 0.9638 0.2665
vn -0.3021 0.9533 -0.0000
vn -0.3019 0.4453 0.8430
vn -0.3019 -0.4440 0.8436
vn -0.3021 -0.9533 -0.0000
vn 0.0000 -0.9680 0.2511
vn 0.1607 -0.0000 -0.9870
vn 0.9801 -0.1571 -0.1217
vn 0.9538 -0.1636 -0.2520
vn 0.0000 -0.9680 0.2510
vn 0.0000 -0.8739 0.4860
vn -1.0000 0.0000 0.0000
vn -0.4961 0.7836 -0.3739
vn -0.4958 0.7831 -0.3754
vn -0.3005 0.9018 -0.3104
vn 0.0658 -0.8548 -0.5148
vn -0.0110 -0.8977 -0.4405
vn -0.2283 -0.9341 -0.2743
vn 0.9982 0.0484 0.0344
vn -0.4163 -0.7043 -0.5751
vn -0.4166 -0.7040 -0.5752
vn -0.4566 -0.6687 -0.5868
vn -0.0000 0.9638 0.2666
vn -0.0000 0.8579 0.5138
vn -0.4438 0.8609 -0.2488
vn -0.3956 0.8603 -0.3215
vn -0.5410 0.8381 -0.0699
vn -0.6693 -0.0000 -0.7430
vn -0.5994 -0.7822 -0.1701
vn -0.5986 -0.7211 -0.3490
vn -0.6116 -0.7238 -0.3196
vn -0.4183 -0.9004 -0.1196
vn -0.5760 -0.8175 0.0000
vn -0.5992 -0.7820 -0.1714
vn -0.5760 -0.3808 0.7234
vn -0.3021 -0.4440 0.8435
vn -0.5760 0.3818 0.7228
vn -0.4068 0.9079 -0.1007
vn -0.5760 0.8175 -0.0000
vn -0.5846 0.7986 -0.1430
vn -0.5753 0.7619 -0.2976
vn -0.5724 0.7990 -0.1842
vn 0.0000 -0.9789 0.2044
vn -0.0000 0.9789 0.2044
vn -0.2488 0.4321 -0.8668
vn 0.1418 0.3468 -0.9271
vn -0.1616 0.3513 -0.9222
vn -0.2760 -0.4358 -0.8567
vn -0.0000 -0.4141 -0.9102
vn 0.0000 -0.6167 -0.7872
vn 0.9778 0.0005 0.2096
vn 0.9604 -0.1870 0.2066
vn 0.9608 -0.1817 0.2095
vn 0.9611 0.1877 0.2025
vn 0.9784 0.0004 0.2069
vn -0.9786 -0.0763 0.1909
vn -0.9805 0.0037 0.1963
vn -0.9789 -0.0915 0.1826
vn -0.9745 0.0838 0.2084
vn -0.9790 0.0038 0.2039
vn -0.4695 -0.0014 -0.8829
vn -0.1804 -0.3544 -0.9175
vn -0.2298 0.0071 -0.9732
vn 0.3001 -0.1975 -0.9332
vn 0.4421 0.0070 -0.8970
vn 0.5692 -0.1866 -0.8008
vn 0.2154 0.0035 -0.9765
vn 0.1855 -0.3414 -0.9214
vn 0.0000 0.3924 0.9198
vn 0.0000 -0.3924 0.9198
vn 0.8441 0.0000 -0.5361
vn 0.1525 -0.0000 -0.9883
vn 0.0887 -0.8162 0.5709
vn -0.0028 -0.6185 0.7858
vn -0.1688 -0.6702 0.7227
vn -0.1860 0.0356 0.9819
vn -0.4547 0.7119 0.5352
vn -0.2898 0.5720 0.7674
vn -0.5302 0.7781 0.3367
vn -0.2974 -0.5633 0.7709
vn -0.4683 -0.7057 0.5317
vn -0.2068 0.0000 -0.9784
vn 0.1592 0.7553 -0.6357
vn 0.3276 0.7689 -0.5490
vn 0.0953 0.8452 -0.5259
vn 0.1012 -0.8448 -0.5254
vn 0.3323 -0.7532 -0.5676
vn 0.1553 -0.7450 -0.6488
vn 0.2157 0.6512 -0.7276
vn 0.2031 -0.6296 -0.7499
vn 0.1556 -0.2781 -0.9479
vn 0.1593 0.2846 -0.9453
vn 0.1694 0.0043 -0.9855
vn 0.2053 0.4585 -0.8647
vn 0.1594 0.7553 -0.6356
vn 0.1553 -0.7450 -0.6487
vn 0.1954 -0.4415 -0.8757
vn 0.1343 0.9646 -0.2268
vn 0.4235 0.9028 -0.0745
vn 0.1375 0.9632 -0.2309
vn 0.9850 0.0000 0.1725
vn 0.4563 -0.8872 -0.0683
vn 0.4664 -0.8804 -0.0860
vn 0.4689 -0.8786 -0.0905
vn -0.1446 -0.8463 -0.5127
vn -0.1935 -0.8788 -0.4362
vn -0.1327 -0.8395 -0.5268
vn -0.8328 -0.0000 -0.5535
vn -0.2053 0.9344 -0.2911
vn -0.2136 0.9372 -0.2756
vn -0.2141 -0.8234 -0.5255
vn -0.1953 0.8271 -0.5270
vn 0.5074 0.0000 -0.8617
vn 0.2792 0.8599 -0.4274
vn 0.2621 -0.8795 -0.3972
vn 0.1687 0.8833 -0.4374
vn 0.1766 -0.9377 -0.2991
vn 0.0432 -0.6731 -0.7383
vn -0.3134 0.2458 -0.9173
vn 0.1687 -0.8833 -0.4374
vn 0.1861 0.9185 -0.3488
vn 0.0432 0.6731 -0.7383
vn -0.3134 -0.2458 -0.9173
vn 0.3573 -0.6370 -0.6830
vn 0.3980 0.6271 -0.6696
vn 0.2934 -0.2705 -0.9169
vn 0.0938 0.3157 0.9442
vn -0.2069 0.9608 0.1845
vn -0.3021 0.4452 0.8429
vn -0.2061 -0.9630 0.1739
vn -0.5560 0.7270 -0.4028
vn 0.2260 -0.6932 -0.6844
vn 0.9955 0.0470 -0.0817
vn -0.3042 -0.7876 -0.5359
vn -0.1670 0.7805 -0.6025
vn -0.5846 -0.7815 -0.2178
vn -0.5843 0.7986 -0.1446
vn -0.5862 0.7633 -0.2715
vn 0.2242 0.4308 -0.8741
vn 0.9615 0.1825 0.2055
vn -0.9747 0.0990 0.2002
vn 0.4259 0.9013 -0.0789
vn 0.4535 -0.8890 -0.0633
vn -0.2044 -0.8867 -0.4147
vn -0.1951 0.8271 -0.5270
s 1
f 2//1 4//2 1//3
f 4//4 6//5 1//6
f 2//7 5//8 3//9
f 6//10 2//7 1//11
f 7//12 8//13 9//12
f 10//14 9//14 8//15
f 3//9 5//8 4//16
f 11//17 12//18 13//19
f 14//20 9//14 10//14
f 7//12 9//12 14//21
f 7//22 10//22 8//22
f 15//23 16//23 17//23
f 16//24 18//24 17//24
f 15//25 18//25 16//25
f 18//26 15//26 17//26
f 20//27 22//28 19//29
f 21//30 24//31 22//28
f 23//32 25//33 24//31
f 24//34 25//35 26//36
f 27//37 20//27 19//29
f 30//38 19//39 29//40
f 22//41 26//36 31//42
f 22//41 29//40 19//39
f 25//43 23//44 26//45
f 21//46 26//45 23//44
f 21//46 29//47 31//48
f 30//49 20//50 28//51
f 27//52 30//52 28//52
f 33//53 35//54 32//55
f 33//56 36//57 37//58
f 35//59 37//8 36//60
f 36//60 32//61 35//59
f 38//62 39//62 40//63
f 41//64 40//65 39//64
f 34//9 33//66 37//8
f 42//67 41//64 39//64
f 38//62 42//68 39//62
f 41//22 38//22 40//22
f 43//69 44//69 45//69
f 45//24 44//24 46//24
f 43//25 45//25 46//25
f 46//70 44//70 43//70
f 48//71 50//72 47//73
f 49//74 51//75 52//76
f 52//76 51//75 53//77
f 51//78 54//79 53//80
f 50//72 56//81 47//73
f 47//82 58//83 57//84
f 48//85 54//79 51//78
f 48//85 57//84 59//86
f 53//87 54//88 52//89
f 49//90 54//88 59//91
f 57//92 49//90 59//91
f 50//93 58//94 55//95
f 56//96 55//96 58//96
f 60//97 61//98 62//99
f 63//100 64//100 65//100
f 66//101 61//98 67//102
f 68//103 63//104 66//105
f 61//98 69//106 67//107
f 65//108 68//109 69//110
f 62//111 69//112 60//113
f 65//114 66//115 63//116
f 68//117 71//118 69//119
f 72//120 68//121 66//122
f 72//120 73//123 70//124
f 70//124 74//125 71//118
f 70//124 73//123 74//125
f 71//126 76//127 69//26
f 69//106 77//128 67//107
f 77//129 66//101 67//102
f 78//130 72//131 66//70
f 80//132 74//132 73//132
f 73//123 82//133 83//134
f 72//135 84//136 82//136
f 80//137 84//137 79//137
f 80//138 83//139 85//140
f 82//141 85//142 83//143
f 74//125 87//144 71//118
f 81//145 86//146 74//147
f 81//137 89//137 88//137
f 71//148 89//149 75//148
f 88//150 87//151 86//152
f 80//153 91//153 81//153
f 79//154 90//155 80//156
f 79//157 93//158 92//159
f 77//129 93//160 78//161
f 77//128 95//162 94//162
f 75//163 95//164 76//127
f 75//165 91//166 96//167
f 95//137 92//137 93//137
f 96//137 90//137 92//137
f 94//137 95//137 93//137
f 98//168 100//168 97//168
f 102//169 104//169 101//169
f 101//170 105//171 106//172
f 98//173 108//174 99//175
f 109//176 100//177 99//178
f 109//176 103//179 110//180
f 97//181 112//182 98//183
f 102//184 112//182 111//185
f 112//186 107//187 98//173
f 112//186 106//172 113//188
f 108//189 109//190 99//191
f 105//171 109//190 114//192
f 113//188 108//193 107//187
f 106//172 114//192 113//188
f 103//194 111//194 110//194
f 100//195 111//195 97//195
f 115//196 117//196 118//196
f 115//197 120//197 119//197
f 13//198 121//199 122//200
f 121//201 12//18 11//17
f 125//202 123//203 124//204
f 121//199 123//205 122//200
f 125//206 122//200 123//205
f 126//207 127//207 125//207
f 11//208 128//209 126//210
f 127//211 129//212 122//213
f 128//209 11//208 130//214
f 122//213 129//212 131//215
f 131//216 130//217 13//218
f 130//219 11//220 13//217
f 13//216 122//221 131//222
f 129//223 116//224 115//225
f 126//226 116//226 127//226
f 128//227 117//228 126//229
f 128//230 120//231 118//232
f 130//233 119//233 120//233
f 129//223 119//234 131//235
f 122//213 125//236 127//211
f 126//210 124//237 11//208
f 133//238 135//238 132//238
f 133//239 132//239 136//239
f 135//240 134//240 137//240
f 2//1 3//241 4//2
f 4//4 5//242 6//5
f 2//7 6//10 5//8
f 7//22 14//22 10//22
f 20//27 21//30 22//28
f 21//30 23//32 24//31
f 27//37 28//243 20//27
f 30//38 27//244 19//39
f 22//41 24//34 26//36
f 22//41 31//42 29//40
f 21//46 31//48 26//45
f 21//46 20//50 29//47
f 30//49 29//47 20//50
f 33//53 34//245 35//54
f 33//56 32//246 36//57
f 35//59 34//9 37//8
f 41//22 42//22 38//22
f 48//71 49//74 50//72
f 49//74 48//71 51//75
f 50//72 55//247 56//81
f 47//82 56//248 58//83
f 48//85 59//86 54//79
f 48//85 47//82 57//84
f 49//90 52//89 54//88
f 57//92 50//93 49//90
f 50//93 57//92 58//94
f 66//101 62//99 61//98
f 68//103 64//249 63//104
f 61//98 60//97 69//106
f 65//108 64//250 68//109
f 62//111 66//251 69//112
f 65//114 69//252 66//115
f 68//117 70//124 71//118
f 72//120 70//124 68//121
f 71//126 75//253 76//127
f 69//106 76//254 77//128
f 77//129 78//161 66//101
f 78//130 79//255 72//131
f 80//132 81//132 74//132
f 73//123 72//120 82//133
f 72//135 79//135 84//136
f 80//137 85//137 84//137
f 80//138 73//256 83//139
f 82//141 84//257 85//142
f 74//125 86//258 87//144
f 81//145 88//259 86//146
f 81//137 75//137 89//137
f 71//148 87//149 89//149
f 88//150 89//260 87//151
f 80//153 90//153 91//153
f 79//154 92//261 90//155
f 79//157 78//130 93//158
f 77//129 94//160 93//160
f 77//128 76//254 95//162
f 75//163 96//262 95//164
f 75//165 81//263 91//166
f 95//137 96//137 92//137
f 96//137 91//137 90//137
f 98//168 99//168 100//168
f 102//169 103//169 104//169
f 101//170 104//264 105//171
f 98//173 107//187 108//174
f 109//176 110//180 100//177
f 109//176 104//265 103//179
f 97//181 111//185 112//182
f 102//184 101//266 112//182
f 112//186 113//188 107//187
f 112//186 101//170 106//172
f 108//189 114//192 109//190
f 105//171 104//264 109//190
f 113//188 114//192 108//193
f 106//172 105//171 114//192
f 103//194 102//194 111//194
f 100//195 110//195 111//195
f 115//196 116//196 117//196
f 115//197 118//197 120//197
f 13//198 12//198 121//199
f 124//204 123//203 11//17
f 123//203 121//201 11//17
f 129//223 127//267 116//224
f 126//226 117//226 116//226
f 128//227 118//268 117//228
f 128//230 130//269 120//231
f 130//233 131//233 119//233
f 129//223 115//225 119//234
f 126//210 125//270 124//237
f 133//238 134//238 135//238
